<?xml version="1.0" encoding="utf-8"?>
<!-- Generator: Adobe Illustrator 19.0.0, SVG Export Plug-In . SVG Version: 6.00 Build 0)  -->
<svg version="1.1" id="Symanto-logo" xmlns="http://www.w3.org/2000/svg" xmlns:xlink="http://www.w3.org/1999/xlink" x="0px"
	 y="0px" viewBox="-719 1017 480 152" style="enable-background:new -719 1017 480 152;" xml:space="preserve">
<style type="text/css">
	.st0{fill:#FFFFFF;}
</style>
<g>
	<path class="st0" d="M-690.4,1073.8c-2.1-0.4-4.1-0.9-6-1.5c-4.7-1.5-8.2-4.8-8.5-8.1c0-0.3,0-0.7,0-1c0.2-2.3,1.7-4.5,4.2-6
		c2.6-1.6,5.9-2.3,9.2-2c4.5,0.3,8.5,2.3,10.7,5.2c1.6,2.2,4.8,2.7,7,1c2.2-1.6,2.7-4.8,1-7c-3.9-5.2-10.6-8.7-17.9-9.2
		c-12.7-0.9-23.3,6.7-24.1,17.3c-0.1,0.9-0.1,1.8,0,2.7c0.8,7.3,6.8,13.8,15.4,16.6c2.4,0.8,4.7,1.2,6.9,1.7c4.5,1,8.4,1.8,11,4.4
		c2,2,3,4.5,2.9,6.8c-0.2,2.6-1.8,5.1-4.6,6.9c-3,1.9-6.8,2.8-10.8,2.5c-5.5-0.4-10.4-3-12.7-6.8c-0.7-1.1-1.8-1.9-3.1-2.3
		c-1.3-0.3-2.6-0.1-3.8,0.6c-2.3,1.4-3.1,4.5-1.7,6.8c3.9,6.5,11.8,10.9,20.5,11.6c0.7,0.1,1.4,0.1,2.2,0.1c5.4,0,10.6-1.5,14.8-4.2
		c5.5-3.5,8.6-8.6,9.1-14.5c0.4-5.3-1.5-10.3-5.7-14.5C-679.1,1076.2-685.1,1074.9-690.4,1073.8z"/>
	<path class="st0" d="M-507.1,1068.8v40.4c0,2.9,1.9,5,4.8,5c2.7,0,4.9-2,4.9-5v-40.4c0-14.9-8.9-23.9-24.1-23.9
		c-4,0-14.5,1.9-19.1,9.2c-4-5.9-10.9-9.2-20.1-9.2c-4.1,0-11.3,1.8-14.7,5.8v-1.8c0-2.7-2.3-5-5-5c-2.9,0-4.8,2.3-4.8,5v60.2
		c0,2.9,1.9,5,4.8,5c2.7,0,5-2,5-5v-40.6c0-8.1,6.1-13.7,14.7-13.7c11.7,0,14.3,7.9,14.3,14v40.4c0,2.9,1.9,5,4.8,5
		c0.1,0,0.1,0,0.2,0c0.1,0,0.1,0,0.2,0c2.7,0,5-2,5-5v-40.6c0-8.1,6.1-13.7,14.7-13.7C-509.7,1054.9-507.1,1062.8-507.1,1068.8z"/>
	<path class="st0" d="M-609.7,1044.1c-2.9,0-4.8,2.3-4.8,5v42.6c0,7.7-6.3,12.6-14.6,12.6c-11.8,0-14.5-7.5-14.5-14V1049
		c0-2.7-2.3-5-5-5c-2.9,0-4.8,2.3-4.8,5v41.2c0,14.9,8.9,23.9,24.2,23.9c4.4,0,10.9-1.9,14.6-5.3c0,0,0,6.2,0,6.3
		c0,14-11.4,25.4-25.4,25.4h-3.8c-2.7,0-4.8,2.2-4.8,4.8c0,2.7,2.2,4.8,4.8,4.8h3.8c19.3,0,35.1-15.7,35.1-35c0-0.8,0-0.8,0-66
		C-604.8,1046.4-607.1,1044.1-609.7,1044.1z"/>
	<path class="st0" d="M-266.2,1045c-14.9,0-24.4,9.4-24.4,23.9v21.4c0,14.9,9,23.9,24.4,23.9c14.9,0,24.2-9,24.2-23.9v-21.4
		C-242,1054-251,1045-266.2,1045z M-251.9,1090.3c0,9.1-5.2,14.1-14.3,14.1c-11.9,0-14.5-7.7-14.5-14.1v-21.4c0-9.1,5.3-14,14.5-14
		c11.8,0,14.3,7.9,14.3,14V1090.3z"/>
	<path class="st0" d="M-455,1114.2c4.6,0,11-1.9,14.7-5.3v0.7c0,2.9,1.9,4.8,4.8,4.8c2.5,0,4.8-1.9,4.8-4.8v-60.4
		c0-2.5-2.3-4.8-4.8-4.8c-2.9,0-4.8,2.3-4.8,4.8v1.4c-3.6-3.4-10.2-5.3-14.7-5.3c-14.9,0-24.5,9.4-24.5,23.9v21.1
		C-479.5,1105-470.3,1114.2-455,1114.2z M-469.4,1069c0-9.1,5.3-14,14.5-14c11.8,0,14.6,7.9,14.6,14v21.1c0,9.1-5.5,14-14.6,14
		c-11.9,0-14.5-7.5-14.5-14V1069z"/>
	<path class="st0" d="M-363.1,1109.4V1069c0-14.9-8.9-23.9-24.1-23.9c-4.1,0-11.3,1.8-14.7,5.8v-1.8c0-2.7-2.3-5-5-5
		c-2.9,0-4.8,2.3-4.8,5v60.2c0,2.9,1.9,5,4.8,5c2.7,0,5-2,5-5v-40.6c0-8.1,6.1-13.7,14.7-13.7c11.7,0,14.3,7.9,14.3,14v40.4
		c0,2.9,1.9,5,4.8,5C-365.3,1114.3-363.1,1112.3-363.1,1109.4z"/>
	<path class="st0" d="M-301.5,1094.9c0-2.7-2.2-4.9-4.9-4.9s-4.9,2.2-4.9,4.9c0,5.2-4.3,9.5-9.5,9.5c-5.2,0-9.5-4.3-9.5-9.5
		c0-0.2,0-39.4,0-39.4h17.8c2.7,0,4.9-1.9,4.9-4.8c0-2.4-2.3-4.7-4.9-4.7h-17.8V1028c0-2.9-2.3-5-5-5c-2.9,0-4.8,2-4.8,5v17.9h-9.6
		c-2.9,0-4.6,2.3-4.6,4.7c0,2.9,1.7,4.8,4.6,4.8h9.6l0,39.9c0.3,10.4,8.8,18.8,19.3,18.8C-310.1,1114.2-301.5,1105.5-301.5,1094.9z"
		/>
	<path class="st0" d="M-503.5,1131c-2.2,0-4.6,0.8-6.1,2.7v-2.3h-2.4v31.7h2.4v-11.1c1.5,1.9,3.9,2.7,6.1,2.7c4.9,0,8.2-3.1,8.2-8.1
		v-7.7C-495.3,1134.1-498.5,1131-503.5,1131z M-497.7,1146.6c0,3.7-2.3,5.9-5.9,5.9c-3.7,0-6-2.4-6-5.9v-7.4c0-3.5,2.3-5.9,6-5.9
		c3.6,0,5.9,2.2,5.9,5.9V1146.6z"/>
	<path class="st0" d="M-477.3,1142.1l-3.6-1.1c-2.7-0.8-4.3-1.6-4.3-3.8c0-2.2,2.1-3.9,5.5-3.9c3.9,0,5.6,1.8,5.8,4.6h2.4
		c-0.2-4.1-3-6.8-8.2-6.8c-4.7,0-7.9,2.5-7.9,6.2c0,3.4,2.4,4.8,5.8,5.9l3.6,1.1c2.8,0.9,4.5,1.8,4.5,4c0,2.4-2.2,4.3-6,4.3
		c-3.6,0-6-2-6-5.4h-2.4c0,5.1,3.9,7.6,8.5,7.6c4.8,0,8.4-2.6,8.4-6.7C-471.4,1144.7-473.7,1143.3-477.3,1142.1z"/>
	<path class="st0" d="M-457.3,1152.4h-0.4l-6.1-20.9h-2.5l6.8,22.9h1.5l-0.7,2.8c-0.7,2.7-2,3.8-4.5,3.8h-1.1v2.2h1.3
		c3,0,5.3-1.3,6.5-5.4l7.9-26.4h-2.5L-457.3,1152.4z"/>
	<path class="st0" d="M-434.4,1133.3c3.5,0,5.7,2,6,5.3h2.4c0-4.5-3.5-7.6-8.4-7.6c-5.1,0-8.4,3.2-8.4,8.2v7.5c0,5,3.3,8.2,8.4,8.2
		c4.9,0,8.2-3.1,8.4-7.8h-2.4c-0.3,3.5-2.3,5.5-6,5.5c-3.5,0-6-2.2-6-5.9v-7.5C-440.4,1135.5-438,1133.3-434.4,1133.3z"/>
	<path class="st0" d="M-409.9,1131c-2.3,0-4.7,0.8-6.1,2.7v-11.1h-2.4v31.7h2.4v-15.2c0-3.5,2.3-5.9,6-5.9c3.6,0,5.9,2.2,5.9,5.9
		v15.2h2.4v-15.3C-401.7,1134.1-404.9,1131-409.9,1131z"/>
	<path class="st0" d="M-385,1131c-5.1,0-8.4,3.2-8.4,8.2v7.5c0,5,3.3,8.2,8.4,8.2c5.1,0,8.4-3.2,8.4-8.2v-7.5
		C-376.6,1134.2-379.9,1131-385,1131z M-379,1146.7c0,3.7-2.3,5.9-6,5.9c-3.7,0-6-2.2-6-5.9v-7.5c0-3.7,2.3-5.9,6-5.9
		c3.6,0,6,2.2,6,5.9V1146.7z"/>
	<path class="st0" d="M-366,1148.8v-26.2h-2.4v26.7c0,3.4,1.7,5.1,5.3,5.1h0.8v-2.2h-0.5C-364.9,1152.1-366,1151.3-366,1148.8z"/>
	<path class="st0" d="M-348,1131c-5.1,0-8.4,3.2-8.4,8.2v7.5c0,5,3.3,8.2,8.4,8.2c5.1,0,8.4-3.2,8.4-8.2v-7.5
		C-339.6,1134.2-342.9,1131-348,1131z M-342.1,1146.7c0,3.7-2.3,5.9-6,5.9c-3.7,0-6-2.2-6-5.9v-7.5c0-3.7,2.3-5.9,6-5.9
		c3.6,0,6,2.2,6,5.9V1146.7z"/>
	<path class="st0" d="M-317.4,1133.7c-1.5-1.9-3.9-2.7-6.1-2.7c-5,0-8.2,3.1-8.2,8.1v7.2c0,4.9,3.3,8.1,8.2,8.1
		c2.2,0,4.6-0.8,6.1-2.7v4c0,3.8-2.3,5.8-5.7,5.8c-3.5,0-5.6-2-5.8-4.9h-2.4c0.3,4.2,3.2,7.1,8.2,7.1c4.7,0,8.2-2.7,8.2-8.2v-24
		h-2.4V1133.7z M-317.4,1146.2c0,3.5-2.3,5.9-6,5.9c-3.7,0-6-2.2-6-5.9v-7c0-3.7,2.3-5.9,6-5.9c3.6,0,6,2.4,6,5.9V1146.2z"/>
	<path class="st0" d="M-299.6,1152.4h-0.4l-6.1-20.9h-2.5l6.8,22.9h1.5l-0.7,2.8c-0.7,2.7-2,3.8-4.5,3.8h-1.1v2.2h1.3
		c3,0,5.3-1.3,6.5-5.4l7.9-26.4h-2.5L-299.6,1152.4z"/>
	<path class="st0" d="M-264.1,1131c-4.5,0-7.8,2.5-8,6.9h2.5c0.2-2.8,2-4.6,5.6-4.6c3.7,0,5.6,1.9,5.6,5.2v2.8h-6.1
		c-5.2,0-8.4,2.4-8.4,6.7c0,4.1,3,6.9,7.6,6.9c2.8,0,5.2-1,6.9-3.1v2.7h2.4v-16C-256.1,1133.8-259.2,1131-264.1,1131z
		 M-258.5,1146.4c0,3.6-2.6,6.2-6.5,6.2c-3.4,0-5.6-1.8-5.6-4.8c0-2.9,2.4-4.5,6-4.5h6V1146.4z"/>
	<rect x="-247.4" y="1131.5" class="st0" width="2.4" height="22.9"/>
	<rect x="-247.6" y="1123.6" class="st0" width="2.7" height="3.7"/>
</g>
</svg>
